<svg xmlns="http://www.w3.org/2000/svg" width="1200" height="430" viewBox="0 0 1200 430" preserveAspectRatio="xMidYMid meet" role="img" aria-labelledby="title desc">
  <title id="title">Omakidx fire-breathing ASCII dragon</title>
  <desc id="desc">A colorful original ASCII cyber-dragon breathes fire beside a workflow card: design interfaces and systems, build full-stack products, automate agent workflows, and ship useful software.</desc>
  <defs>
    <linearGradient id="background" x1="0" y1="0" x2="1" y2="1">
      <stop offset="0" stop-color="#07111f"/>
      <stop offset="0.55" stop-color="#11152d"/>
      <stop offset="1" stop-color="#220d32"/>
    </linearGradient>
    <linearGradient id="dragon" x1="24" y1="0" x2="720" y2="0" gradientUnits="userSpaceOnUse">
      <stop offset="0" stop-color="#22d3ee"/>
      <stop offset="0.35" stop-color="#60a5fa"/>
      <stop offset="0.68" stop-color="#a78bfa"/>
      <stop offset="1" stop-color="#f472b6"/>
    </linearGradient>
    <linearGradient id="fire" x1="330" y1="0" x2="735" y2="0" gradientUnits="userSpaceOnUse">
      <stop offset="0" stop-color="#fde047"/>
      <stop offset="0.45" stop-color="#fb923c"/>
      <stop offset="1" stop-color="#ef4444"/>
    </linearGradient>
    <pattern id="grid" width="32" height="32" patternUnits="userSpaceOnUse">
      <path d="M32 0H0V32" fill="none" stroke="#94a3b8" stroke-opacity="0.07"/>
    </pattern>
    <filter id="fireGlow" x="-30%" y="-80%" width="170%" height="260%">
      <feGaussianBlur stdDeviation="8" result="blur"/>
      <feMerge>
        <feMergeNode in="blur"/>
        <feMergeNode in="SourceGraphic"/>
      </feMerge>
    </filter>
  </defs>

  <rect width="1200" height="430" rx="24" fill="url(#background)"/>
  <rect x="1" y="1" width="1198" height="428" rx="23" fill="none" stroke="#334155"/>
  <rect width="1200" height="430" rx="24" fill="url(#grid)"/>

  <circle cx="28" cy="28" r="5" fill="#fb7185"/>
  <circle cx="46" cy="28" r="5" fill="#fbbf24"/>
  <circle cx="64" cy="28" r="5" fill="#34d399"/>
  <text x="82" y="33" fill="#94a3b8" font-family="ui-monospace, SFMono-Regular, Menlo, Monaco, Consolas, Liberation Mono, monospace" font-size="13" letter-spacing="1.6">OMAKIDX // BUILD MODE</text>

  <g filter="url(#fireGlow)">
    <path fill="#ef4444" opacity="0.82" d="M338 183C420 130 480 157 535 112c-13 37 45 38 90 16-17 31 53 33 99 57-48 25-112 20-154 45 11-27-55-18-100 0 19-28-50-21-132-36Z"/>
    <path fill="#fb923c" opacity="0.94" d="M344 185c76-29 128-6 204-35-13 25 56 18 131 37-71 17-134 9-195 24 13-21-57-9-140-18Z"/>
  </g>

  <text xml:space="preserve" fill="url(#dragon)" font-family="ui-monospace, SFMono-Regular, Menlo, Monaco, Consolas, Liberation Mono, monospace" font-size="12.8">
    <tspan x="26" y="64">                  __/\__                         __/\__</tspan>
    <tspan x="26" y="82">             _.-'/######\__                 __/######\'-._</tspan>
    <tspan x="26" y="100">         _.-'   /##########\___.-------.___/##########\   '-._</tspan>
    <tspan x="26" y="118">       .'      /############/    _____    \############\      '.</tspan>
    <tspan x="26" y="136">      /______./######/\####/    /_   _\    \####/\######\.______\</tspan>
    <tspan x="26" y="154">      \      /######/  \##/    | o   o |    \##/  \######\      /</tspan>
    <tspan x="26" y="172">       '.___/###/\##\   \/     |   ^   |     \/   /##/\###\___.'</tspan>
    <tspan x="26" y="190">          /___/  \__\    \     \  ===  /</tspan>
    <tspan x="26" y="208">       ___\   \___________\     '.___.'     /___________/   /___</tspan>
    <tspan x="26" y="226">      /    '._      _.-'   \_____/ | \_____/   '-._      _.'    \</tspan>
    <tspan x="26" y="244">     /_.--'    '--._/      /    | | |    \      \_.--'    '--._\</tspan>
    <tspan x="26" y="262">     \             / \____/     | | |     \____/ \             /</tspan>
    <tspan x="26" y="280">      '._       .-'    /        | | |        \    '-.       _.'</tspan>
    <tspan x="26" y="298">         '----'       /____   __|_|_|__   ____\       '----'</tspan>
    <tspan x="26" y="316">                     /_/\_\ /_/     \_\ /_/\_\</tspan>
    <tspan x="26" y="334">                    /_____/             \_____\</tspan>
  </text>

  <path fill="#fde047" filter="url(#fireGlow)" d="M348 187c73-10 151-3 278 1-96 9-191 8-278 4Z"/>
  <text x="350" y="181" fill="url(#fire)" font-family="ui-monospace, SFMono-Regular, Menlo, Monaco, Consolas, Liberation Mono, monospace" font-size="17" font-weight="700">~~~===&gt;  *  +  )))  &gt;&gt;&gt;&gt;&gt;</text>
  <text x="302" y="154" fill="#fde68a" font-family="ui-monospace, SFMono-Regular, Menlo, Monaco, Consolas, Liberation Mono, monospace" font-size="12.8">o   o</text>

  <rect x="30" y="365" width="690" height="38" rx="10" fill="#020617" fill-opacity="0.72" stroke="#1e3a5f"/>
  <text x="48" y="389" fill="#6ee7b7" font-family="ui-monospace, SFMono-Regular, Menlo, Monaco, Consolas, Liberation Mono, monospace" font-size="13">&gt; automating the boring so ideas move faster_</text>

  <g>
    <rect x="770" y="52" width="390" height="326" rx="18" fill="#0f172a" fill-opacity="0.88" stroke="#475569"/>
    <text x="798" y="88" fill="#22d3ee" font-family="ui-monospace, SFMono-Regular, Menlo, Monaco, Consolas, Liberation Mono, monospace" font-size="14" font-weight="700">$ OMAKIDX --builder-mode</text>
    <line x1="798" y1="106" x2="1132" y2="106" stroke="#334155"/>
    <text x="798" y="143" fill="#22d3ee" font-family="ui-monospace, SFMono-Regular, Menlo, Monaco, Consolas, Liberation Mono, monospace" font-size="14" font-weight="700">DESIGN</text>
    <text x="900" y="143" fill="#cbd5e1" font-family="ui-monospace, SFMono-Regular, Menlo, Monaco, Consolas, Liberation Mono, monospace" font-size="13">interfaces + systems</text>
    <text x="798" y="187" fill="#a78bfa" font-family="ui-monospace, SFMono-Regular, Menlo, Monaco, Consolas, Liberation Mono, monospace" font-size="14" font-weight="700">BUILD</text>
    <text x="900" y="187" fill="#cbd5e1" font-family="ui-monospace, SFMono-Regular, Menlo, Monaco, Consolas, Liberation Mono, monospace" font-size="13">full-stack products</text>
    <text x="798" y="231" fill="#f472b6" font-family="ui-monospace, SFMono-Regular, Menlo, Monaco, Consolas, Liberation Mono, monospace" font-size="14" font-weight="700">AUTOMATE</text>
    <text x="900" y="231" fill="#cbd5e1" font-family="ui-monospace, SFMono-Regular, Menlo, Monaco, Consolas, Liberation Mono, monospace" font-size="13">agent workflows</text>
    <text x="798" y="275" fill="#34d399" font-family="ui-monospace, SFMono-Regular, Menlo, Monaco, Consolas, Liberation Mono, monospace" font-size="14" font-weight="700">SHIP</text>
    <text x="900" y="275" fill="#cbd5e1" font-family="ui-monospace, SFMono-Regular, Menlo, Monaco, Consolas, Liberation Mono, monospace" font-size="13">useful software</text>
    <rect x="798" y="310" width="334" height="42" rx="9" fill="#020617" stroke="#334155"/>
    <text x="816" y="336" fill="#fbbf24" font-family="ui-monospace, SFMono-Regular, Menlo, Monaco, Consolas, Liberation Mono, monospace" font-size="13">IDEA  -&gt;  CODE  -&gt;  IMPACT _</text>
  </g>
</svg>
